<?xml version="1.0" encoding="utf-8"?>
<svg xmlns="http://www.w3.org/2000/svg" style="margin: auto; background: none; display: block; shape-rendering: auto;" width="286" height="80" preserveAspectRatio="xMidYMid">
<style type="text/css">
  text {
    text-anchor: middle; font-size: 69px; opacity: 0;
  }
</style>
<g style="transform-origin: 143px 40px; transform: scale(0.896104);">
<g transform="translate(143,40)">
  <g transform="translate(0,0)"><g class="path" style="transform: scale(0.91); transform-origin: -129.17px -5.47309px; animation: 0.847458s linear -0.508475s infinite normal forwards running breath-03a4f96a-40da-4455-874b-ed6c87b7063b;"><path d="M32.88-1.77L32.88-1.77Q26.03 0.77 20.10 0.77L20.10 0.77L20.10 0.77Q13.40 0.77 9.24-2.77L9.24-2.77L9.24-2.77Q5.08-6.31 5.08-14.09L5.08-14.09L5.08-38.81L5.08-38.81Q5.08-44.66 6.74-47.66L6.74-47.66L6.74-47.66Q8.39-50.67 11.78-52.74L11.78-52.74L11.78-52.74Q15.17-54.67 20.10-54.67L20.10-54.67L20.10-54.67Q26.10-54.67 30.95-52.13L30.95-52.13L29.72-49.20L29.72-49.20Q25.33-50.82 21.41-50.82L21.41-50.82L21.41-50.82Q16.71-50.82 13.05-48.51L13.05-48.51L13.05-48.51Q9.39-46.20 9.39-39.50L9.39-39.50L9.39-14.24L9.39-14.24Q9.39-8.93 12.17-6.04L12.17-6.04L12.17-6.04Q14.94-3.16 20.48-3.16L20.48-3.16L20.48-3.16Q25.33-3.16 31.95-5.39L31.95-5.39L32.88-1.77" fill="#93dbe9" stroke="none" stroke-width="none" transform="translate(-148.14999389648438,21.476908985484727)" style="fill: rgb(147, 219, 233);"></path></g><g class="path" style="transform: scale(0.91); transform-origin: -96.905px 2.30691px; animation: 0.847458s linear -0.457627s infinite normal forwards running breath-03a4f96a-40da-4455-874b-ed6c87b7063b;"><path d="M66.07 0L66.07 0Q57.75 0.85 54.05 0.85L54.05 0.85L54.05 0.85Q45.97 0.85 41.20-2.16L41.20-2.16L41.20-2.16Q36.42-5.16 36.42-13.01L36.42-13.01L36.42-19.40L36.42-19.40Q36.42-27.03 41.73-29.64L41.73-29.64L41.73-29.64Q44.28-30.95 48.20-30.95L48.20-30.95L48.20-30.95Q51.82-30.95 55.52-29.76L55.52-29.76L55.52-29.76Q59.21-28.57 61.75-26.64L61.75-26.64L61.75-26.64Q61.75-30.88 59.29-33.38L59.29-33.38L59.29-33.38Q56.83-35.88 49.82-35.88L49.82-35.88L50.05-39.19L50.05-39.19Q57.44-39.19 60.95-36.84L60.95-36.84L60.95-36.84Q64.45-34.50 65.26-31.26L65.26-31.26L65.26-31.26Q66.07-28.03 66.07-22.95L66.07-22.95L66.07 0zM61.75-23.33L61.75-23.33Q58.60-24.79 55.02-25.87L55.02-25.87L55.02-25.87Q51.44-26.95 48.43-26.95L48.43-26.95L48.43-26.95Q40.66-26.95 40.66-19.17L40.66-19.17L40.66-12.47L40.66-12.47Q40.66-7.47 44.12-5.20L44.12-5.20L44.12-5.20Q47.59-2.93 53.98-2.93L53.98-2.93L53.98-2.93Q57.29-2.93 61.75-3.54L61.75-3.54L61.75-23.33" fill="#93dbe9" stroke="none" stroke-width="none" transform="translate(-148.14999389648438,21.476908985484727)" style="fill: rgb(104, 156, 197);"></path></g><g class="path" style="transform: scale(0.91); transform-origin: -64.995px 1.84191px; animation: 0.847458s linear -0.40678s infinite normal forwards running breath-03a4f96a-40da-4455-874b-ed6c87b7063b;"><path d="M73.53 0L73.53-38.58L77.85-38.58L77.62-35.88L77.62-35.88Q81.23-39.27 87.09-39.27L87.09-39.27L87.09-39.27Q89.17-39.27 92.78-38.58L92.78-38.58L91.63-34.65L91.63-34.65Q89.17-35.42 86.47-35.42L86.47-35.42L86.47-35.42Q82.93-35.42 80.39-34.11L80.39-34.11L80.39-34.11Q77.85-32.80 77.85-30.18L77.85-30.18L77.85 0L73.53 0" fill="#93dbe9" stroke="none" stroke-width="none" transform="translate(-148.14999389648438,21.476908985484727)" style="fill: rgb(94, 111, 163);"></path></g><g class="path" style="transform: scale(0.91); transform-origin: -36.305px 9.92691px; animation: 0.847458s linear -0.355932s infinite normal forwards running breath-03a4f96a-40da-4455-874b-ed6c87b7063b;"><path d="M116.96 12.86L116.96 12.86Q122.04 10.93 122.04 4.85L122.04 4.85L122.04-4.70L122.04-4.70Q118.81 0.92 111.65 0.92L111.65 0.92L111.65 0.92Q104.87 0.92 101.10-2.77L101.10-2.77L101.10-2.77Q97.33-6.47 97.33-13.55L97.33-13.55L97.33-25.02L97.33-25.02Q97.33-31.80 101.29-35.54L101.29-35.54L101.29-35.54Q105.26-39.27 111.96-39.27L111.96-39.27L111.96-39.27Q119.12-39.27 122.35-34.11L122.35-34.11L122.04-38.58L126.36-38.58L126.36 4.93L126.36 4.93Q126.36 9.55 124.43 12.17L124.43 12.17L124.43 12.17Q122.51 14.78 118.12 16.17L118.12 16.17L116.96 12.86zM122.04-25.87L122.04-25.87Q122.04-30.65 118.96-32.99L118.96-32.99L118.96-32.99Q115.88-35.34 111.65-35.34L111.65-35.34L111.65-35.34Q107.57-35.34 104.60-32.84L104.60-32.84L104.60-32.84Q101.64-30.34 101.64-24.64L101.64-24.64L101.64-12.86L101.64-12.86Q101.64-8.01 104.37-5.54L104.37-5.54L104.37-5.54Q107.11-3.08 111.65-3.08L111.65-3.08L111.65-3.08Q115.96-3.08 119.00-5.74L119.00-5.74L119.00-5.74Q122.04-8.39 122.04-13.32L122.04-13.32L122.04-25.87" fill="#93dbe9" stroke="none" stroke-width="none" transform="translate(-148.14999389648438,21.476908985484727)" style="fill: rgb(59, 67, 104);"></path></g><g class="path" style="transform: scale(0.91); transform-origin: -1.50499px 2.30691px; animation: 0.847458s linear -0.305085s infinite normal forwards running breath-03a4f96a-40da-4455-874b-ed6c87b7063b;"><path d="M161.47 0L161.47 0Q153.15 0.85 149.46 0.85L149.46 0.85L149.46 0.85Q141.37 0.85 136.60-2.16L136.60-2.16L136.60-2.16Q131.82-5.16 131.82-13.01L131.82-13.01L131.82-19.40L131.82-19.40Q131.82-27.03 137.14-29.64L137.14-29.64L137.14-29.64Q139.68-30.95 143.60-30.95L143.60-30.95L143.60-30.95Q147.22-30.95 150.92-29.76L150.92-29.76L150.92-29.76Q154.62-28.57 157.16-26.64L157.16-26.64L157.16-26.64Q157.16-30.88 154.69-33.38L154.69-33.38L154.69-33.38Q152.23-35.88 145.22-35.88L145.22-35.88L145.45-39.19L145.45-39.19Q152.84-39.19 156.35-36.84L156.35-36.84L156.35-36.84Q159.85-34.50 160.66-31.26L160.66-31.26L160.66-31.26Q161.47-28.03 161.47-22.95L161.47-22.95L161.47 0zM157.16-23.33L157.16-23.33Q154-24.79 150.42-25.87L150.42-25.87L150.42-25.87Q146.84-26.95 143.84-26.95L143.84-26.95L143.84-26.95Q136.06-26.95 136.06-19.17L136.06-19.17L136.06-12.47L136.06-12.47Q136.06-7.47 139.52-5.20L139.52-5.20L139.52-5.20Q142.99-2.93 149.38-2.93L149.38-2.93L149.38-2.93Q152.69-2.93 157.16-3.54L157.16-3.54L157.16-23.33" fill="#93dbe9" stroke="none" stroke-width="none" transform="translate(-148.14999389648438,21.476908985484727)" style="fill: rgb(25, 29, 58);"></path></g><g class="path" style="transform: scale(0.91); transform-origin: 35.225px 1.88191px; animation: 0.847458s linear -0.254237s infinite normal forwards running breath-03a4f96a-40da-4455-874b-ed6c87b7063b;"><path d="M193.35 0L193.35-26.41L193.35-26.41Q193.35-31.11 190.61-33.23L190.61-33.23L190.61-33.23Q187.88-35.34 183.57-35.34L183.57-35.34L183.57-35.34Q180.95-35.34 178.25-34.61L178.25-34.61L178.25-34.61Q175.56-33.88 173.48-32.73L173.48-32.73L173.48 0L169.17 0L169.17-38.58L173.48-38.58L173.17-35.96L173.17-35.96Q175.02-37.58 177.87-38.38L177.87-38.38L177.87-38.38Q180.72-39.19 183.80-39.19L183.80-39.19L183.80-39.19Q188.03-39.19 191.04-37.81L191.04-37.81L191.04-37.81Q194.12-36.42 195.85-33.65L195.85-33.65L195.85-33.65Q197.58-30.88 197.58-26.64L197.58-26.64L197.58 0L193.35 0" fill="#93dbe9" stroke="none" stroke-width="none" transform="translate(-148.14999389648438,21.476908985484727)" style="fill: rgb(217, 219, 238);"></path></g><g class="path" style="transform: scale(0.91); transform-origin: 74.805px -5.01309px; animation: 0.847458s linear -0.20339s infinite normal forwards running breath-03a4f96a-40da-4455-874b-ed6c87b7063b;"><path d="M208.75-26.64L208.75-26.64Q208.75-34.73 215.29-37.73L215.29-37.73L215.29-37.73Q218.45-39.19 222.84-39.19L222.84-39.19L222.84-39.19Q225.69-39.19 228.34-38.50L228.34-38.50L228.34-38.50Q231-37.81 232.85-36.50L232.85-36.50L232.85-53.90L237.16-53.90L237.16 0L232.92 0.39L232.92 0.39Q227.92 0.92 225.07 0.92L225.07 0.92L225.07 0.92Q222.22 0.92 219.72 0.39L219.72 0.39L219.72 0.39Q217.22-0.15 214.75-1.39L214.75-1.39L214.75-1.39Q211.98-2.77 210.36-5.47L210.36-5.47L210.36-5.47Q208.75-8.16 208.75-12.09L208.75-12.09L208.75-26.64zM232.85-32.73L232.85-32.73Q230.77-33.88 228.07-34.61L228.07-34.61L228.07-34.61Q225.38-35.34 222.76-35.34L222.76-35.34L222.76-35.34Q218.45-35.34 215.72-33.23L215.72-33.23L215.72-33.23Q212.98-31.11 212.98-26.41L212.98-26.41L212.98-12.01L212.98-12.01Q212.98-3.00 225.38-3.00L225.38-3.00L225.38-3.00Q228.30-3.00 232.85-3.70L232.85-3.70L232.85-32.73" fill="#93dbe9" stroke="none" stroke-width="none" transform="translate(-148.14999389648438,21.476908985484727)" style="fill: rgb(179, 183, 226);"></path></g><g class="path" style="transform: scale(0.91); transform-origin: 111.92px 2.15191px; animation: 0.847458s linear -0.152542s infinite normal forwards running breath-03a4f96a-40da-4455-874b-ed6c87b7063b;"><path d="M274.43-14.17L274.43-14.17Q274.43-7.70 270.89-3.46L270.89-3.46L270.89-3.46Q267.34 0.77 260.18 0.77L260.18 0.77L260.18 0.77Q253.02 0.77 249.36-3.50L249.36-3.50L249.36-3.50Q245.71-7.78 245.71-14.17L245.71-14.17L245.71-24.33L245.71-24.33Q245.71-31.65 249.44-35.54L249.44-35.54L249.44-35.54Q253.18-39.42 260.18-39.42L260.18-39.42L260.18-39.42Q266.88-39.42 270.65-35.38L270.65-35.38L270.65-35.38Q274.43-31.34 274.43-24.33L274.43-24.33L274.43-14.17zM270.12-24.33L270.12-24.33Q270.12-30.11 267.46-32.80L267.46-32.80L267.46-32.80Q264.80-35.50 260.18-35.50L260.18-35.50L260.18-35.50Q255.41-35.50 252.71-32.80L252.71-32.80L252.71-32.80Q250.02-30.11 250.02-24.33L250.02-24.33L250.02-13.40L250.02-13.40Q250.02-8.78 252.75-5.93L252.75-5.93L252.75-5.93Q255.49-3.08 260.18-3.08L260.18-3.08L260.18-3.08Q264.96-3.08 267.54-5.89L267.54-5.89L267.54-5.89Q270.12-8.70 270.12-13.40L270.12-13.40L270.12-24.33" fill="#93dbe9" stroke="none" stroke-width="none" transform="translate(-148.14999389648438,21.476908985484727)" style="fill: rgb(147, 219, 233);"></path></g><g class="path" style="transform: scale(0.91); transform-origin: 132.21px 18.9369px; animation: 0.847458s linear -0.101695s infinite normal forwards running breath-03a4f96a-40da-4455-874b-ed6c87b7063b;"><path d="M280.36 0L280.36 0Q279.36 0 278.59-0.77L278.59-0.77L278.59-0.77Q277.82-1.54 277.82-2.54L277.82-2.54L277.82-2.54Q277.82-3.62 278.59-4.35L278.59-4.35L278.59-4.35Q279.36-5.08 280.36-5.08L280.36-5.08L280.36-5.08Q281.44-5.08 282.17-4.35L282.17-4.35L282.17-4.35Q282.90-3.62 282.90-2.54L282.90-2.54L282.90-2.54Q282.90-1.54 282.17-0.77L282.17-0.77L282.17-0.77Q281.44 0 280.36 0L280.36 0" fill="#93dbe9" stroke="none" stroke-width="none" transform="translate(-148.14999389648438,21.476908985484727)" style="fill: rgb(104, 156, 197);"></path></g><g class="path" style="transform: scale(0.91); transform-origin: 141.45px 18.9369px; animation: 0.847458s linear -0.0508475s infinite normal forwards running breath-03a4f96a-40da-4455-874b-ed6c87b7063b;"><path d="M289.60 0L289.60 0Q288.60 0 287.83-0.77L287.83-0.77L287.83-0.77Q287.06-1.54 287.06-2.54L287.06-2.54L287.06-2.54Q287.06-3.62 287.83-4.35L287.83-4.35L287.83-4.35Q288.60-5.08 289.60-5.08L289.60-5.08L289.60-5.08Q290.68-5.08 291.41-4.35L291.41-4.35L291.41-4.35Q292.14-3.62 292.14-2.54L292.14-2.54L292.14-2.54Q292.14-1.54 291.41-0.77L291.41-0.77L291.41-0.77Q290.68 0 289.60 0L289.60 0" fill="#93dbe9" stroke="none" stroke-width="none" transform="translate(-148.14999389648438,21.476908985484727)" style="fill: rgb(94, 111, 163);"></path></g><g class="path" style="transform: scale(0.91); transform-origin: 150.69px 18.9369px; animation: 0.847458s linear 0s infinite normal forwards running breath-03a4f96a-40da-4455-874b-ed6c87b7063b;"><path d="M298.84 0L298.84 0Q297.84 0 297.07-0.77L297.07-0.77L297.07-0.77Q296.30-1.54 296.30-2.54L296.30-2.54L296.30-2.54Q296.30-3.62 297.07-4.35L297.07-4.35L297.07-4.35Q297.84-5.08 298.84-5.08L298.84-5.08L298.84-5.08Q299.92-5.08 300.65-4.35L300.65-4.35L300.65-4.35Q301.38-3.62 301.38-2.54L301.38-2.54L301.38-2.54Q301.38-1.54 300.65-0.77L300.65-0.77L300.65-0.77Q299.92 0 298.84 0L298.84 0" fill="#93dbe9" stroke="none" stroke-width="none" transform="translate(-148.14999389648438,21.476908985484727)" style="fill: rgb(59, 67, 104);"></path></g></g>
</g>
</g>
<style id="breath-03a4f96a-40da-4455-874b-ed6c87b7063b" data-anikit="">@keyframes breath-03a4f96a-40da-4455-874b-ed6c87b7063b
{
  0% {
    animation-timing-function: cubic-bezier(0.9647,0.2413,-0.0705,0.7911);
    transform: scale(0.9099999999999999);
  }
  51% {
    animation-timing-function: cubic-bezier(0.9226,0.2631,-0.0308,0.7628);
    transform: scale(1.02994);
  }
  100% {
    transform: scale(0.9099999999999999);
  }
}</style></svg>